<?xml version="1.0" encoding="utf-8" standalone="no"?>
<!DOCTYPE svg PUBLIC "-//W3C//DTD SVG 1.1//EN"
  "http://www.w3.org/Graphics/SVG/1.1/DTD/svg11.dtd">
<svg xmlns:xlink="http://www.w3.org/1999/xlink" width="489.6pt" height="244.8pt" viewBox="0 0 489.6 244.8" xmlns="http://www.w3.org/2000/svg" version="1.1">
 <metadata>
  <rdf:RDF xmlns:dc="http://purl.org/dc/elements/1.1/" xmlns:cc="http://creativecommons.org/ns#" xmlns:rdf="http://www.w3.org/1999/02/22-rdf-syntax-ns#">
   <cc:Work>
    <dc:type rdf:resource="http://purl.org/dc/dcmitype/StillImage"/>
    <dc:date>2024-01-12T14:12:33.554993</dc:date>
    <dc:format>image/svg+xml</dc:format>
    <dc:creator>
     <cc:Agent>
      <dc:title>Matplotlib v3.8.2, https://matplotlib.org/</dc:title>
     </cc:Agent>
    </dc:creator>
   </cc:Work>
  </rdf:RDF>
 </metadata>
 <defs>
  <style type="text/css">*{stroke-linejoin: round; stroke-linecap: butt}</style>
 </defs>
 <g id="figure_1">
  <g id="patch_1">
   <path d="M 0 244.8 
L 489.6 244.8 
L 489.6 0 
L 0 0 
L 0 244.8 
z
" style="fill: none"/>
  </g>
  <g id="axes_1">
   <g id="patch_2">
    <path d="M 61.2 217.872 
L 440.64 217.872 
L 440.64 29.376 
L 61.2 29.376 
L 61.2 217.872 
z
" style="fill: none"/>
   </g>
   <g id="matplotlib.axis_1"/>
   <g id="matplotlib.axis_2"/>
   <g id="line2d_1">
    <path d="M 224.055301 -1 
L 227.233055 27.030346 
L 230.513317 53.94909 
L 233.465553 76.427057 
L 236.417789 97.248167 
L 239.370025 116.412423 
L 241.994234 132.056376 
L 244.618444 146.391209 
L 247.242654 159.416921 
L 249.538837 169.740532 
L 251.83502 179.061847 
L 254.131204 187.380867 
L 256.099361 193.71371 
L 258.067518 199.310173 
L 260.035676 204.170256 
L 261.675807 207.657812 
L 263.315938 210.633993 
L 264.956069 213.098799 
L 266.268174 214.702454 
L 267.580278 215.978829 
L 268.892383 216.927923 
L 270.204488 217.549738 
L 271.188567 217.801321 
L 272.172645 217.868809 
L 273.156724 217.752202 
L 274.140803 217.4515 
L 275.124881 216.966703 
L 276.436986 216.033937 
L 277.749091 214.773891 
L 279.061196 213.186564 
L 280.373301 211.271958 
L 282.013432 208.418462 
L 283.653563 205.053592 
L 285.293694 201.177346 
L 286.933825 196.789724 
L 288.901982 190.849564 
L 290.870139 184.173023 
L 292.838296 176.760102 
L 295.13448 167.180991 
L 297.430663 156.599585 
L 299.726847 145.015884 
L 302.351057 130.550068 
L 304.975266 114.775131 
L 307.599476 97.691075 
L 310.551712 76.906702 
L 313.503948 54.465475 
L 316.456183 30.367392 
L 319.736446 1.648518 
L 320.027555 -1 
L 320.027555 -1 
" clip-path="url(#pf7de0ce9d6)" style="fill: none; stroke: #808080; stroke-width: 1.5; stroke-linecap: square"/>
   </g>
   <g id="line2d_2">
    <path d="M 244.360965 -1 
L 245.930549 37.032208 
L 247.57068 70.673273 
L 249.210811 98.980288 
L 250.850942 122.714861 
L 252.163047 138.852398 
L 253.475152 152.77423 
L 254.787256 164.737914 
L 256.099361 174.971528 
L 257.411466 183.677127 
L 258.723571 191.033778 
L 260.035676 197.200229 
L 261.347781 202.317255 
L 262.659885 206.509727 
L 263.97199 209.888431 
L 265.284095 212.551672 
L 266.268174 214.132444 
L 267.252252 215.393177 
L 268.236331 216.364169 
L 269.22041 217.073124 
L 270.204488 217.545376 
L 271.188567 217.804091 
L 272.172645 217.870447 
L 273.48475 217.692921 
L 274.796855 217.249017 
L 276.10896 216.575415 
L 277.749091 215.459585 
L 279.717248 213.791125 
L 282.013432 211.491427 
L 284.637641 208.525089 
L 288.24593 204.072615 
L 295.13448 195.111023 
L 301.695004 186.736853 
L 306.615397 180.831942 
L 310.879738 176.050877 
L 315.144079 171.606398 
L 319.408419 167.502561 
L 323.344734 164.010443 
L 327.609075 160.53458 
L 331.873415 157.36028 
L 336.137756 154.466975 
L 340.402097 151.833321 
L 344.994464 149.26316 
L 349.58683 146.944051 
L 354.507224 144.710605 
L 359.755643 142.584749 
L 365.004062 140.694148 
L 370.580508 138.912908 
L 376.813006 137.164895 
L 383.37353 135.564609 
L 390.26208 134.111101 
L 397.806683 132.745478 
L 406.007338 131.486385 
L 415.192072 130.306485 
L 423.392727 129.422461 
L 423.392727 129.422461 
" clip-path="url(#pf7de0ce9d6)" style="fill: none; stroke: #000000; stroke-width: 1.5; stroke-linecap: square"/>
   </g>
   <g id="line2d_3">
    <path d="M 78.447273 217.872 
L 78.447273 29.376 
" clip-path="url(#pf7de0ce9d6)" style="fill: none; stroke: #333333; stroke-width: 0.5; stroke-linecap: square"/>
   </g>
   <g id="line2d_4">
    <path d="M 61.2 123.624 
L 440.64 123.624 
" clip-path="url(#pf7de0ce9d6)" style="fill: none; stroke: #333333; stroke-width: 0.5; stroke-linecap: square"/>
   </g>
  </g>
 </g>
 <defs>
  <clipPath id="pf7de0ce9d6">
   <rect x="61.2" y="29.376" width="379.44" height="188.496"/>
  </clipPath>
 </defs>
</svg>
